<?xml version="1.0" encoding="UTF-8"?>
<svg id="Calque_1" data-name="Calque 1" xmlns="http://www.w3.org/2000/svg" viewBox="0 0 286 286">
  <defs>
    <style>
      .cls-1 {
        fill: #fff;
      }

      .cls-2 {
        fill: #333;
      }
    </style>
  </defs>
  <circle class="cls-1" cx="143" cy="143" r="143"/>
  <path class="cls-2" d="m206.11,168.64c3.14-1.65,6.01-2.91,8.6-4.59,4.97-3.23,10.33-2.85,15.65-1.77,4.73.96,5.54,5.98,2.13,10.44-3.22,4.2-7.14,6.98-12.06,9.27-10.97,5.09-21.5,11.14-32.11,16.97-4.27,2.34-6.33,1.96-7.64-2.81-.93-3.4-2.8-6.91-.91-10.66.18-.36-.07-.99-.22-1.46-1.83-5.89-3.62-11.78-5.53-17.64-.79-2.43-1.91-4.76-2.74-7.18-.21-.61-.08-1.75.32-2.03.46-.32,1.73-.24,2.07.16,1.66,1.97,3.33,3.99,4.6,6.22,2.07,3.64,3.82,7.46,5.89,11.56,6.51-8.67,11.09-17.72,13.32-27.9,1.34-6.1,1.97-12.29,1.06-18.49-.94-6.41-3.52-12.29-7.44-17.37-9.11-11.81-21.31-18.56-36-20.7-20.13-2.93-37.95,2.65-54.04,14.79-13.13,9.9-20.38,23.29-22.93,39.14-2.54,15.8.87,30.66,10.52,43.54,7.82,10.43,18.69,16.53,31.4,19.28,4.09.89,8.24,1.51,13.3,2.43-1.24,1.16-1.87,2.2-2.73,2.45-1.97.57-4.07,1.13-6.08,1.04-11.64-.54-22.63-3.24-32.39-9.99-12.5-8.66-19.91-20.65-23.42-35.26-1.65-6.87-2.48-13.82-2.19-20.9.62-15.01,5.65-28.45,14.36-40.59,8.49-11.83,19.42-20.69,32.68-26.62,6.37-2.85,13.04-4.65,19.96-5.77,6.86-1.11,13.71-1.01,20.52-.4,24.8,2.23,43.71,13.73,54.96,36.37,5.03,10.14,6.29,21.03,4.9,32.31-1.11,9.04-3.85,17.51-7.83,26.17Z"/>
</svg>